<?xml version="1.0" encoding="UTF-8"?>
<svg id="Layer_1" data-name="Layer 1" xmlns="http://www.w3.org/2000/svg" viewBox="0 0 1920 1920">
  <defs>
    <style>
      .cls-1 {
        fill: #fff;
      }
    </style>
  </defs>
  <g>
    <path d="m960,1919.51c-129.53,0-255.19-25.37-373.48-75.4-114.26-48.33-216.87-117.51-304.99-205.63-88.12-88.12-157.3-190.73-205.63-304.99C25.86,1215.19.49,1089.53.49,960s25.37-255.19,75.4-373.48c48.33-114.26,117.51-216.87,205.63-304.99,88.12-88.12,190.73-157.3,304.99-205.63C704.81,25.86,830.47.49,960,.49s255.19,25.37,373.48,75.4c114.26,48.33,216.87,117.51,304.99,205.63,88.12,88.12,157.3,190.73,205.63,304.99,50.03,118.29,75.4,243.95,75.4,373.48s-25.37,255.19-75.4,373.48c-48.33,114.26-117.51,216.87-205.63,304.99-88.12,88.12-190.73,157.3-304.99,205.63-118.29,50.03-243.95,75.4-373.48,75.4Z"/>
    <path d="m960,.99c65.07,0,130.1,6.56,193.28,19.48,61.57,12.6,122.14,31.4,180.02,55.88,56.83,24.04,111.63,53.78,162.9,88.42,50.78,34.31,98.53,73.71,141.93,117.1s82.8,91.15,117.1,141.93c34.64,51.27,64.39,106.08,88.42,162.9,24.48,57.88,43.28,118.44,55.88,180.02,12.93,63.18,19.48,128.21,19.48,193.28s-6.56,130.1-19.48,193.28c-12.6,61.57-31.4,122.14-55.88,180.02-24.04,56.83-53.78,111.63-88.42,162.9-34.31,50.78-73.71,98.53-117.1,141.93s-91.15,82.8-141.93,117.1c-51.27,34.64-106.08,64.39-162.9,88.42-57.88,24.48-118.44,43.28-180.02,55.88-63.18,12.93-128.21,19.48-193.28,19.48s-130.1-6.56-193.28-19.48c-61.57-12.6-122.14-31.4-180.02-55.88-56.83-24.04-111.63-53.78-162.9-88.42-50.78-34.31-98.53-73.71-141.93-117.1s-82.8-91.15-117.1-141.93c-34.64-51.27-64.39-106.08-88.42-162.9-24.48-57.88-43.28-118.44-55.88-180.02C7.54,1090.1.99,1025.07.99,960s6.56-130.1,19.48-193.28c12.6-61.57,31.4-122.14,55.88-180.02,24.04-56.83,53.78-111.63,88.42-162.9,34.31-50.78,73.71-98.53,117.1-141.93s91.15-82.8,141.93-117.1c51.27-34.64,106.08-64.39,162.9-88.42,57.88-24.48,118.44-43.28,180.02-55.88C829.9,7.54,894.93.99,960,.99m0-.99C429.81,0,0,429.81,0,960s429.81,960,960,960,960-429.81,960-960S1490.19,0,960,0h0Z"/>
  </g>
  <g>
    <g>
      <g>
        <path class="cls-1" d="m715.62,540.92h-13.22v-98.78c0-11.75-4.35-20.75-13.04-26.99-8.69-6.24-18.54-9.36-29.56-9.36s-21.12,3.86-29.56,11.57c-8.45,7.71-12.67,17.2-12.67,28.46,0,5.39.98,11.88,2.94,19.46,2.69,10.78,4.16,16.89,4.41,18.36,2.2-13.95,6-25.83,11.38-35.62,7.1-12.73,16.03-19.1,26.81-19.1,6.12,0,11.14,1.96,15.06,5.88,3.91,3.92,5.88,9.18,5.88,15.79,0,6.12-2.08,11.33-6.24,15.61-4.17,4.29-9.31,6.43-15.42,6.43s-12-2.94-16.89-8.81c-3.43,5.14-6.86,12.49-10.28,22.03-4.17,11.75-6.24,22.16-6.24,31.21v23.87h-13.22v-33.78c0-7.1-1.96-17.13-5.88-30.11-3.92-12.97-5.88-22.89-5.88-29.74,0-15.91,5.38-28.76,16.16-38.56,10.77-9.79,24.24-14.69,40.39-14.69,14.93,0,27.85,3.98,38.74,11.93,10.89,7.96,16.34,19.65,16.34,35.07v99.88Zm-41.86-90.33c0-3.18-1.1-5.88-3.3-8.08-2.2-2.2-4.9-3.3-8.08-3.3s-5.88,1.1-8.08,3.3c-2.2,2.2-3.3,4.9-3.3,8.08s1.1,5.88,3.3,8.08c2.2,2.2,4.89,3.3,8.08,3.3s5.88-1.1,8.08-3.3c2.2-2.2,3.3-4.89,3.3-8.08Z"/>
        <path class="cls-1" d="m732.88,343.36c0,7.84-2.69,14.45-8.08,19.83-5.38,5.39-11.99,8.08-19.83,8.08s-14.5-2.69-20.01-8.08c-5.51-5.38-8.26-11.99-8.26-19.83s2.75-14.5,8.26-20.01c5.51-5.51,12.18-8.26,20.01-8.26s14.45,2.75,19.83,8.26c5.39,5.51,8.08,12.18,8.08,20.01Zm-12.12,0c0-4.41-1.59-8.2-4.77-11.38s-6.85-4.77-11.02-4.77c-4.41,0-8.2,1.6-11.38,4.77-3.18,3.18-4.77,6.98-4.77,11.38s1.6,8.14,4.77,11.2c3.18,3.06,6.98,4.59,11.38,4.59,4.17,0,7.84-1.53,11.02-4.59,3.18-3.06,4.77-6.79,4.77-11.2Zm110.9,197.56h-13.22v-109.8c0-7.34-2.75-13.4-8.26-18.18s-13.04-7.16-22.58-7.16c-8.57,0-15.42,2.88-20.56,8.63-5.14,5.75-7.96,11.93-8.45,18.54h-13.59c.24-10.28,4.34-19.34,12.3-27.17,7.95-7.83,18.18-11.75,30.66-11.75,14.2,0,25.03,3.43,32.5,10.28,7.46,6.86,11.2,15.92,11.2,27.17v109.43Z"/>
        <path class="cls-1" d="m993.23,519.99c0,6.61-2.39,12.24-7.16,16.89-4.77,4.65-10.47,6.98-17.08,6.98s-12.24-2.33-16.89-6.98c-4.65-4.65-6.98-10.28-6.98-16.89v-2.57c-15.18,6.12-26.93,13.95-35.25,23.5h-16.16v-100.98c-3.18,1.72-6.86,2.57-11.02,2.57-6.61,0-12.3-2.39-17.08-7.16-4.77-4.77-7.16-10.47-7.16-17.08s2.39-12.3,7.16-17.08c4.77-4.77,10.47-7.16,17.08-7.16s12.3,2.39,17.08,7.16c4.77,4.77,7.16,10.47,7.16,17.08v108.33c4.89-5.38,13.59-10.89,26.07-16.52,13.95-6.36,23.01-11.26,27.17-14.69,8.32-6.61,12.49-15.06,12.49-25.34v-73.08h13.22v74.91c0,11.75-2.7,20.32-8.08,25.71,10.28,4.17,15.42,11.63,15.42,22.4Zm-98.05-101.72c0-3.43-1.23-6.36-3.67-8.81-2.45-2.44-5.39-3.67-8.81-3.67s-6.37,1.23-8.81,3.67c-2.45,2.45-3.67,5.39-3.67,8.81s1.22,6.37,3.67,8.81c2.44,2.45,5.38,3.67,8.81,3.67s6.36-1.22,8.81-3.67c2.44-2.44,3.67-5.38,3.67-8.81Zm86.3,101.35c0-3.43-1.23-6.36-3.67-8.81-2.45-2.44-5.39-3.67-8.81-3.67s-6.37,1.23-8.81,3.67c-2.45,2.45-3.67,5.39-3.67,8.81s1.22,6.37,3.67,8.81c2.44,2.45,5.38,3.67,8.81,3.67s6.36-1.22,8.81-3.67c2.44-2.44,3.67-5.38,3.67-8.81Z"/>
        <path class="cls-1" d="m1108.9,519.62c0,6.61-2.39,12.3-7.16,17.08-4.77,4.77-10.47,7.16-17.08,7.16s-12.3-2.39-17.08-7.16c-4.77-4.77-7.16-10.47-7.16-17.08s2.39-12.3,7.16-17.08c4.77-4.77,10.47-7.16,17.08-7.16,4.16,0,7.83.86,11.02,2.57v-59.49c0-21.79-12.12-32.68-36.35-32.68-19.1,0-30.97,8.81-35.62,26.44h-13.59c5.38-25.46,22.03-38.19,49.94-38.19,13.95,0,25.58,3.67,34.89,11.02,9.3,7.34,13.95,17.75,13.95,31.21v83.36Zm-11.75,0c0-3.43-1.23-6.36-3.67-8.81-2.45-2.44-5.39-3.67-8.81-3.67s-6.37,1.23-8.81,3.67c-2.45,2.45-3.67,5.39-3.67,8.81s1.22,6.37,3.67,8.81c2.44,2.45,5.38,3.67,8.81,3.67s6.36-1.22,8.81-3.67,3.67-5.38,3.67-8.81Z"/>
        <path class="cls-1" d="m1316.01,520.36c0,6.86-2.33,12.61-6.98,17.26-4.65,4.65-10.53,6.98-17.63,6.98s-12.61-2.33-17.26-6.98c-4.65-4.65-6.98-10.4-6.98-17.26v-2.2c-8.81,3.43-16.65,11.02-23.5,22.77h-15.79v-97.31c0-25.21-11.88-37.82-35.62-37.82-7.84,0-15.12,2.33-21.85,6.98-6.74,4.65-11.45,10.78-14.14,18.36,13.71.98,23.5,6.37,29.38,16.16-5.88,1.23-11.02,4.41-15.42,9.55-4.41,5.14-6.61,10.9-6.61,17.26v23.87c3.18-1.47,6.85-2.2,11.02-2.2,6.85,0,12.61,2.33,17.26,6.98,4.65,4.65,6.98,10.28,6.98,16.89,0,7.1-2.27,12.98-6.79,17.63-4.53,4.65-10.34,6.98-17.44,6.98s-12.92-2.39-17.44-7.16c-4.53-4.77-6.79-10.71-6.79-17.81v-44.8c0-13.22,6.36-22.89,19.09-29.01-9.31-3.67-18.97-5.01-29.01-4.04,2.2-13.71,8.14-25.03,17.81-33.97,9.67-8.93,21.24-13.4,34.7-13.4,15.18,0,26.99,4.17,35.44,12.49,8.45,8.33,12.67,20.2,12.67,35.62v81.15c5.63-7.34,13.46-13.34,23.5-17.99,11.99-5.88,19.09-9.67,21.3-11.38,6.12-5.38,9.18-13.59,9.18-24.6v-72.34h13.22v71.61c0,14.69-2.33,24.36-6.98,29.01,9.79,4.17,14.69,11.75,14.69,22.77Zm-128.89-.37c0-3.43-1.23-6.36-3.67-8.81-2.45-2.44-5.39-3.67-8.81-3.67s-6.31,1.23-8.63,3.67c-2.33,2.45-3.49,5.39-3.49,8.81s1.16,6.31,3.49,8.63c2.32,2.33,5.2,3.49,8.63,3.49s6.36-1.16,8.81-3.49c2.44-2.32,3.67-5.2,3.67-8.63Zm116.77.37c0-3.43-1.23-6.36-3.67-8.81-2.45-2.44-5.39-3.67-8.81-3.67s-6.37,1.23-8.81,3.67c-2.45,2.45-3.67,5.39-3.67,8.81s1.22,6.37,3.67,8.81c2.44,2.45,5.38,3.67,8.81,3.67s6.36-1.22,8.81-3.67,3.67-5.38,3.67-8.81Z"/>
      </g>
      <path class="cls-1" d="m766.79,716.08c0,6.86-2.39,12.73-7.16,17.63-4.77,4.9-10.59,7.34-17.44,7.34-7.59,0-13.83-2.69-18.73-8.08-4.17-4.65-6.24-10.28-6.24-16.89v-124.12h13.22v102.45c3.43-1.96,7.34-2.94,11.75-2.94,6.85,0,12.67,2.39,17.44,7.16s7.16,10.59,7.16,17.44Zm-12.12,0c0-3.43-1.23-6.36-3.67-8.81-2.45-2.44-5.39-3.67-8.81-3.67s-6.37,1.23-8.81,3.67c-2.45,2.45-3.67,5.39-3.67,8.81s1.22,6.37,3.67,8.81c2.44,2.45,5.38,3.67,8.81,3.67s6.36-1.22,8.81-3.67c2.44-2.44,3.67-5.38,3.67-8.81Z"/>
      <path class="cls-1" d="m893.48,738.84h-13.22v-95.84c0-11.99-3.74-21.54-11.2-28.64-7.47-7.1-17.08-10.65-28.83-10.65-8.33,0-16.4,2.33-24.24,6.98-7.84,4.65-13.22,10.65-16.16,17.99,14.44,1.23,24.36,6.61,29.74,16.16-5.88,1.23-11.02,4.47-15.42,9.73-4.41,5.27-6.61,11.08-6.61,17.44v66.83h-13.22v-66.47c0-14.44,6.36-24.24,19.1-29.38-8.08-3.91-17.39-5.26-27.91-4.04,1.96-13.71,8.14-24.97,18.54-33.78,10.4-8.81,22.7-13.22,36.9-13.22,15.91,0,28.64,4.41,38.19,13.22,9.55,8.81,14.32,20.93,14.32,36.35v97.31Z"/>
      <path class="cls-1" d="m1007.31,717.55c0,6.61-2.2,12.3-6.61,17.08-4.41,4.77-10.28,7.16-17.63,7.16-6.61,0-12.3-2.39-17.08-7.16-4.77-4.77-7.16-10.47-7.16-17.08s2.39-12.3,7.16-17.08c4.77-4.77,10.47-7.16,17.08-7.16,4.16,0,7.83.86,11.02,2.57v-38.56c0-10.04-23.63-18.85-70.87-26.44,1.47-25.95,13.34-38.92,35.62-38.92,5.14,0,12.42,1.29,21.85,3.86,9.42,2.57,16.21,3.86,20.38,3.86,2.44,0,4.77-2.81,6.98-8.45l11.38,2.94c-3.67,11.75-9.91,17.63-18.73,17.63-5.14,0-12.55-1.34-22.22-4.04-9.67-2.69-16.96-4.04-21.85-4.04-4.41,0-8.51,1.9-12.3,5.69s-5.82,7.65-6.06,11.57c15.66,2.7,31.09,6.74,46.27,12.12,15.18,5.39,22.77,13.1,22.77,23.13v61.33Zm-11.75,0c0-3.43-1.23-6.36-3.67-8.81-2.45-2.44-5.39-3.67-8.81-3.67s-6.37,1.23-8.81,3.67c-2.45,2.45-3.67,5.39-3.67,8.81s1.22,6.37,3.67,8.81c2.44,2.45,5.38,3.67,8.81,3.67s6.36-1.22,8.81-3.67c2.44-2.44,3.67-5.38,3.67-8.81Z"/>
      <path class="cls-1" d="m1155.29,738.84h-13.22v-95.48c0-26.44-14.08-39.66-42.23-39.66-11.26,0-21.18,3.86-29.74,11.57-8.57,7.71-12.85,17.2-12.85,28.46,0,7.1,1.96,16.71,5.88,28.83,3.91,12.12,5.88,21.48,5.88,28.09,0,4.9-.25,8.21-.73,9.91,2.94-6.36,7.95-13.46,15.06-21.3,5.63-6.12,11.38-12.36,17.26-18.73-6.12,0-11.26-2.08-15.42-6.24-4.17-4.16-6.24-9.3-6.24-15.42s2.08-11.26,6.24-15.42c4.16-4.16,9.3-6.24,15.42-6.24s11.26,2.08,15.42,6.24c4.16,4.17,6.24,9.31,6.24,15.42,0,11.75-8.63,26.69-25.89,44.8-17.26,18.12-26.26,33.18-26.99,45.17h-13.22v-33.05c0-7.1-2.02-17.2-6.06-30.3-4.04-13.09-6.06-23.07-6.06-29.93,0-16.65,5.51-29.74,16.52-39.29,11.02-9.55,24.72-14.32,41.13-14.32s30.05,4.47,39.48,13.4c9.42,8.94,14.14,20.99,14.14,36.17v97.31Zm-43.33-89.97c0-3.18-1.1-5.88-3.3-8.08-2.2-2.2-4.9-3.3-8.08-3.3s-5.88,1.1-8.08,3.3c-2.2,2.2-3.3,4.9-3.3,8.08s1.1,5.88,3.3,8.08c2.2,2.2,4.89,3.3,8.08,3.3s5.88-1.1,8.08-3.3c2.2-2.2,3.3-4.89,3.3-8.08Z"/>
    </g>
    <g>
      <path class="cls-1" d="m776.58,1441.23h-34.66v-250.35c0-47.5-15.41-80.55-46.22-99.18-13.48,12.85-34.03,31.77-61.62,56.81l-65.48-56.81c-32.11,20.55-48.14,53.92-48.14,100.14,0,19.9,5.13,47.35,15.41,82.33,10.26,34.99,15.41,65.32,15.41,90.99,6.41-12.83,19.41-27.28,39-43.33,19.57-16.04,32.57-28.89,39-38.52-14.77-1.28-27.13-7.06-37.07-17.33-9.96-10.26-14.92-23.11-14.92-38.52s5.3-29.52,15.89-40.44c10.59-10.91,23.91-16.37,39.96-16.37s29.52,5.46,40.44,16.37c10.91,10.92,16.37,24.4,16.37,40.44,0,29.53-22.48,64.84-67.4,105.92-44.94,41.09-68.36,77.03-70.29,107.84h-34.66v-86.66c0-18.61-5.46-45.09-16.37-79.44-10.92-34.33-16.37-60.5-16.37-78.48,0-31.44,7.06-60.01,21.18-85.7,16.68-28.89,39.48-47.18,68.36-54.88l59.7,52.96,54.88-52.96c28.24,5.15,50.39,21.51,66.44,49.11,14.11,23.76,21.18,50.72,21.18,80.88v255.16Zm-111.69-214.72c0-8.33-2.89-15.41-8.67-21.18-5.78-5.78-12.85-8.67-21.18-8.67s-15.41,2.89-21.18,8.67c-5.78,5.78-8.67,12.85-8.67,21.18s2.89,15.41,8.67,21.18c5.78,5.78,12.83,8.67,21.18,8.67s15.41-2.89,21.18-8.67,8.67-12.83,8.67-21.18Z"/>
      <path class="cls-1" d="m782.35,1003.12c-73.81-26.31-143.14-39.48-207.98-39.48-23.11,0-48.46,1.93-76.07,5.78.65-33.37,14.44-60.33,41.4-80.88,24.4-18.61,53.61-27.92,87.62-27.92s64.51,8.35,89.55,25.03c-1.93-5.13-2.89-10.26-2.89-15.41,0-12.83,4.66-23.91,13.96-33.22,9.31-9.3,20.39-13.96,33.22-13.96s23.92,4.66,33.22,13.96c9.31,9.31,13.96,20.39,13.96,33.22s-4.65,23.92-13.96,33.22c-9.3,9.31-20.37,13.96-33.22,13.96-3.2,0-7.37-.63-12.52-1.93,16.05,22.48,27.29,51.68,33.7,87.62Zm-37.55-36.59c-28.24-51.99-67.07-77.99-116.51-77.99-44.92,0-75.1,17.02-90.51,51.03,13.48-1.93,28.57-2.89,45.26-2.89,61.62,0,115.54,9.96,161.76,29.85Zm41.4-96.29c0-7.06-2.41-13-7.22-17.81-4.81-4.82-10.74-7.22-17.81-7.22s-13,2.41-17.81,7.22c-4.81,4.81-7.22,10.76-7.22,17.81s2.41,13,7.22,17.81c4.81,4.81,10.76,7.22,17.81,7.22s13-2.41,17.81-7.22c4.81-4.81,7.22-10.74,7.22-17.81Z"/>
      <path class="cls-1" d="m1059.66,1441.23h-34.66l-179.09-200.28,19.26-22.15,159.84,173.32v-215.68c-9,4.5-18.94,6.74-29.85,6.74-17.33,0-32.26-6.26-44.77-18.78-12.52-12.52-18.78-27.11-18.78-43.81,0-18.61,6.09-34.02,18.29-46.22,12.19-12.19,27.28-18.29,45.25-18.29,20.54,0,36.91,6.74,49.11,20.22,10.26,12.2,15.41,26.96,15.41,44.29v320.64Zm-31.78-322.56c0-8.98-3.22-16.68-9.63-23.11-6.42-6.41-14.13-9.63-23.11-9.63s-16.7,3.22-23.11,9.63c-6.42,6.42-9.63,14.13-9.63,23.11s3.2,16.7,9.63,23.11c6.41,6.42,14.11,9.63,23.11,9.63s16.69-3.21,23.11-9.63,9.63-14.11,9.63-23.11Z"/>
      <path class="cls-1" d="m1435.17,1604.92h-35.63v-452.55c0-32.74-14.77-58.09-44.29-76.07l-45.25,34.66-52.96-35.63c-26.96,11.55-42.37,31.46-46.22,59.7,9.63-6.41,19.57-9.63,29.85-9.63,16.69,0,30.81,5.78,42.37,17.33,11.55,11.55,17.33,25.68,17.33,42.37s-5.78,30.66-17.33,41.88c-11.55,11.24-25.68,16.85-42.37,16.85-19.9,0-36.11-7.37-48.62-22.15-12.52-14.76-19.11-32.09-19.74-51.99-1.93-65.48,27.59-107.51,88.58-126.14l47.18,31.78,44.29-31.78c55.2,21.18,82.81,57.46,82.81,108.8v452.55Zm-165.62-419.81c0-8.34-2.74-15.24-8.18-20.7-5.46-5.45-12.37-8.18-20.7-8.18s-15.09,2.74-20.22,8.18c-5.14,5.46-7.7,12.37-7.7,20.7s2.56,15.09,7.7,20.22c5.13,5.15,11.87,7.7,20.22,7.7s15.24-2.56,20.7-7.7c5.45-5.13,8.18-11.87,8.18-20.22Z"/>
    </g>
  </g>
</svg>